<svg width="22" height="12" viewBox="0 0 22 12" fill="none" xmlns="http://www.w3.org/2000/svg">
<path fill-rule="evenodd" clip-rule="evenodd" d="M19.8366 0C18.4129 0 17.6176 1.44 17.9416 2.51L14.4562 6.07C14.1616 5.98 13.7296 5.98 13.4351 6.07L10.9315 3.52C11.2653 2.45 10.47 1 9.03656 1C7.61292 1 6.80783 2.44 7.14165 3.52L2.66456 8.07C1.61401 7.74 0.200195 8.55 0.200195 10C0.200195 11.1 1.08383 12 2.16383 12C3.58747 12 4.38274 10.56 4.05874 9.49L8.52601 4.93C8.82056 5.02 9.25256 5.02 9.5471 4.93L12.0507 7.48C11.7169 8.55 12.5122 10 13.9456 10C15.3693 10 16.1744 8.56 15.8406 7.48L19.3358 3.93C20.3864 4.26 21.8002 3.45 21.8002 2C21.8002 0.9 20.9166 0 19.8366 0Z" fill="black"/>
</svg>
