<svg width="20" height="20" viewBox="0 0 20 20" fill="none" xmlns="http://www.w3.org/2000/svg">
<path fill-rule="evenodd" clip-rule="evenodd" d="M9.99079 0.400391C4.69159 0.400391 0.400391 4.70119 0.400391 10.0004C0.400391 15.2996 4.69159 19.6004 9.99079 19.6004C15.2996 19.6004 19.6004 15.2996 19.6004 10.0004C19.6004 4.70119 15.2996 0.400391 9.99079 0.400391ZM10.0007 17.6803C5.7575 17.6803 2.3207 14.2435 2.3207 10.0003C2.3207 5.75711 5.7575 2.32031 10.0007 2.32031C14.2439 2.32031 17.6807 5.75711 17.6807 10.0003C17.6807 14.2435 14.2439 17.6803 10.0007 17.6803ZM10.4802 5.20039H9.04023V10.9604L14.0802 13.9844L14.8002 12.8036L10.4802 10.2404V5.20039Z" fill="black"/>
</svg>
